<?xml version="1.0" standalone="no"?>
<!DOCTYPE svg PUBLIC "-//W3C//DTD SVG 20010904//EN"
 "http://www.w3.org/TR/2001/REC-SVG-20010904/DTD/svg10.dtd">
<svg version="1.0" xmlns="http://www.w3.org/2000/svg"
 width="500.000000pt" height="500.000000pt" viewBox="0 0 500.000000 500.000000"
 preserveAspectRatio="xMidYMid meet">

<g transform="translate(0.000000,500.000000) scale(0.100000,-0.100000)"
fill="#000000" stroke="none">
<path d="M3090 4710 c-728 -197 -1217 -629 -1438 -1270 -22 -63 -50 -160 -63
-215 l-23 -100 -17 73 c-20 84 -32 102 -66 102 -29 0 -54 -26 -148 -155 -210
-289 -354 -605 -417 -915 -19 -99 -23 -146 -23 -335 0 -148 4 -239 13 -278 8
-32 12 -61 9 -63 -3 -3 -42 22 -88 55 -87 64 -108 71 -133 45 -23 -22 -20 -55
15 -158 216 -632 674 -1042 1319 -1180 321 -69 725 -59 1045 24 453 119 852
427 1044 808 45 89 97 250 116 356 19 114 19 327 0 442 -27 158 -77 292 -171
464 -100 182 -135 300 -135 452 0 55 -4 109 -10 119 -15 29 -58 23 -136 -16
-87 -44 -171 -126 -215 -211 -18 -35 -36 -64 -39 -64 -9 0 -109 233 -153 355
-211 585 -250 1143 -110 1553 34 99 34 105 18 123 -23 26 -67 23 -194 -11z
m-611 -644 c9 -10 9 -55 2 -172 -25 -439 51 -783 232 -1054 93 -139 202 -230
423 -355 66 -37 114 -75 185 -146 70 -70 100 -94 110 -88 23 14 88 10 115 -8
14 -9 34 -33 44 -53 36 -70 43 -159 37 -423 -7 -244 -6 -248 13 -243 11 3 28
8 38 11 10 3 51 9 92 14 135 17 208 -11 231 -90 10 -32 9 -43 -10 -81 -12 -23
-37 -55 -57 -70 -53 -40 -175 -87 -286 -112 l-97 -21 -31 -72 c-59 -134 -179
-291 -282 -370 -197 -152 -404 -224 -647 -224 -155 0 -263 19 -412 70 -336
116 -568 341 -664 642 l-21 69 -22 -30 c-33 -44 -77 -63 -134 -58 -56 6 -83
26 -109 83 -22 47 -23 108 -9 315 6 80 14 238 19 351 10 219 18 255 64 298 31
28 104 39 146 21 20 -8 38 -28 55 -61 16 -33 26 -44 30 -34 3 8 17 15 30 15
19 0 31 -11 52 -45 l26 -45 38 59 c62 95 122 130 194 110 51 -14 76 -57 76
-131 0 -66 -17 -125 -65 -220 l-33 -66 24 -23 c18 -17 24 -19 28 -8 38 130 65
199 97 255 l40 68 -20 85 c-54 230 -75 532 -52 746 40 366 172 706 389 1005
74 102 95 117 121 86z"/>
<path d="M2214 2170 c-99 -56 -175 -178 -215 -345 -27 -113 -23 -285 9 -378
45 -132 142 -215 253 -217 94 -1 219 83 219 149 0 18 -6 34 -14 37 -8 3 -49
-4 -90 -15 -195 -53 -258 -3 -264 212 -6 179 38 337 107 386 34 25 93 28 115
6 20 -20 36 -79 36 -131 0 -74 61 -98 104 -41 29 39 27 158 -4 239 -46 123
-146 162 -256 98z"/>
<path d="M1356 2175 c-19 -19 -24 -68 -37 -370 -6 -137 -13 -298 -16 -357 -5
-90 -3 -112 11 -133 24 -37 71 -35 91 4 17 34 34 141 35 221 l1 55 70 43 c39
24 72 42 74 40 2 -2 39 -78 83 -169 86 -177 134 -243 174 -237 21 3 23 8 22
55 -2 56 -56 181 -151 344 l-50 86 46 56 c94 113 151 235 151 321 0 31 -5 46
-16 50 -25 9 -91 -65 -137 -151 -64 -123 -129 -198 -250 -292 -16 -13 -17 -3
-15 190 3 225 -3 259 -46 259 -14 0 -31 -7 -40 -15z"/>
<path d="M2895 2165 c-101 -54 -175 -209 -230 -480 -44 -213 -37 -395 15 -395
43 0 89 93 105 211 l6 45 92 12 c51 7 111 15 135 18 l42 7 0 -64 c0 -78 14
-170 32 -207 20 -42 66 -38 92 8 18 30 21 51 20 155 -1 177 -58 481 -110 591
-44 93 -130 136 -199 99z m89 -166 c35 -28 57 -107 59 -220 l2 -93 -37 -8
c-21 -4 -76 -11 -124 -16 l-86 -8 7 65 c25 243 92 349 179 280z"/>
<path d="M3456 2147 c-43 -65 -71 -311 -63 -556 5 -152 24 -302 41 -319 14
-13 152 0 240 23 164 43 277 118 238 157 -30 30 -232 4 -364 -47 -16 -6 -17
15 -15 342 2 309 0 352 -15 386 -19 42 -41 47 -62 14z"/>
</g>
</svg>
